<mxfile host="app.diagrams.net" agent="Mozilla/5.0 (Windows NT 10.0; Win64; x64) AppleWebKit/537.36 (KHTML, like Gecko) Chrome/133.0.0.0 Safari/537.36" version="26.0.14">
  <diagram name="Page-1" id="vdKmm-C3PrIeDR5mDClt">
    <mxGraphModel dx="989" dy="538" grid="1" gridSize="10" guides="1" tooltips="1" connect="1" arrows="1" fold="1" page="1" pageScale="1" pageWidth="850" pageHeight="1100" math="0" shadow="0">
      <root>
        <mxCell id="0" />
        <mxCell id="1" parent="0" />
        <mxCell id="T6H1AE3Xun4fIEKx8A7G-1" value="" style="points=[[0.35,0,0],[0.98,0.51,0],[1,0.71,0],[0.67,1,0],[0,0.795,0],[0,0.65,0]];verticalLabelPosition=bottom;sketch=0;html=1;verticalAlign=top;aspect=fixed;align=center;pointerEvents=1;shape=mxgraph.cisco19.user;fillColor=#005073;strokeColor=none;" vertex="1" parent="1">
          <mxGeometry x="110" y="216" width="60" height="60" as="geometry" />
        </mxCell>
        <mxCell id="T6H1AE3Xun4fIEKx8A7G-2" value="&lt;font style=&quot;font-size: 14px;&quot;&gt;User&lt;/font&gt;" style="text;html=1;align=center;verticalAlign=middle;resizable=0;points=[];autosize=1;strokeColor=none;fillColor=none;" vertex="1" parent="1">
          <mxGeometry x="110" y="178" width="50" height="30" as="geometry" />
        </mxCell>
        <mxCell id="T6H1AE3Xun4fIEKx8A7G-6" value="" style="image;aspect=fixed;html=1;points=[];align=center;fontSize=12;image=img/lib/azure2/security/Security_Center.svg;imageBackground=default;" vertex="1" parent="1">
          <mxGeometry x="490" y="214" width="51.05" height="62" as="geometry" />
        </mxCell>
        <mxCell id="T6H1AE3Xun4fIEKx8A7G-7" value="" style="endArrow=none;html=1;rounded=0;entryX=0.486;entryY=1.039;entryDx=0;entryDy=0;entryPerimeter=0;" edge="1" parent="1" source="T6H1AE3Xun4fIEKx8A7G-10" target="T6H1AE3Xun4fIEKx8A7G-1">
          <mxGeometry width="50" height="50" relative="1" as="geometry">
            <mxPoint x="139" y="560" as="sourcePoint" />
            <mxPoint x="150" y="320" as="targetPoint" />
          </mxGeometry>
        </mxCell>
        <mxCell id="T6H1AE3Xun4fIEKx8A7G-8" value="" style="endArrow=none;html=1;rounded=0;entryX=0.5;entryY=1;entryDx=0;entryDy=0;" edge="1" parent="1" source="T6H1AE3Xun4fIEKx8A7G-13">
          <mxGeometry width="50" height="50" relative="1" as="geometry">
            <mxPoint x="330" y="560" as="sourcePoint" />
            <mxPoint x="330.97" y="265" as="targetPoint" />
          </mxGeometry>
        </mxCell>
        <mxCell id="T6H1AE3Xun4fIEKx8A7G-9" value="" style="endArrow=none;html=1;rounded=0;edgeStyle=orthogonalEdgeStyle;" edge="1" parent="1" source="T6H1AE3Xun4fIEKx8A7G-18">
          <mxGeometry width="50" height="50" relative="1" as="geometry">
            <mxPoint x="520" y="560" as="sourcePoint" />
            <mxPoint x="520" y="276" as="targetPoint" />
          </mxGeometry>
        </mxCell>
        <mxCell id="T6H1AE3Xun4fIEKx8A7G-11" value="" style="endArrow=none;html=1;rounded=0;entryX=0.486;entryY=1.039;entryDx=0;entryDy=0;entryPerimeter=0;" edge="1" parent="1" target="T6H1AE3Xun4fIEKx8A7G-10">
          <mxGeometry width="50" height="50" relative="1" as="geometry">
            <mxPoint x="139" y="600" as="sourcePoint" />
            <mxPoint x="139" y="278" as="targetPoint" />
          </mxGeometry>
        </mxCell>
        <mxCell id="T6H1AE3Xun4fIEKx8A7G-12" style="edgeStyle=orthogonalEdgeStyle;rounded=0;orthogonalLoop=1;jettySize=auto;html=1;exitX=1;exitY=0.5;exitDx=0;exitDy=0;" edge="1" parent="1" source="T6H1AE3Xun4fIEKx8A7G-10">
          <mxGeometry relative="1" as="geometry">
            <mxPoint x="330" y="310" as="targetPoint" />
          </mxGeometry>
        </mxCell>
        <mxCell id="T6H1AE3Xun4fIEKx8A7G-10" value="1" style="ellipse;whiteSpace=wrap;html=1;aspect=fixed;fillColor=#A8A8A8;" vertex="1" parent="1">
          <mxGeometry x="130" y="300" width="20" height="20" as="geometry" />
        </mxCell>
        <mxCell id="T6H1AE3Xun4fIEKx8A7G-14" value="" style="endArrow=none;html=1;rounded=0;entryX=0.5;entryY=1;entryDx=0;entryDy=0;" edge="1" parent="1" source="T6H1AE3Xun4fIEKx8A7G-30" target="T6H1AE3Xun4fIEKx8A7G-13">
          <mxGeometry width="50" height="50" relative="1" as="geometry">
            <mxPoint x="330" y="560" as="sourcePoint" />
            <mxPoint x="331" y="265" as="targetPoint" />
          </mxGeometry>
        </mxCell>
        <mxCell id="T6H1AE3Xun4fIEKx8A7G-15" style="edgeStyle=orthogonalEdgeStyle;rounded=0;orthogonalLoop=1;jettySize=auto;html=1;" edge="1" parent="1" source="T6H1AE3Xun4fIEKx8A7G-13">
          <mxGeometry relative="1" as="geometry">
            <mxPoint x="520" y="340" as="targetPoint" />
          </mxGeometry>
        </mxCell>
        <mxCell id="T6H1AE3Xun4fIEKx8A7G-13" value="2" style="ellipse;whiteSpace=wrap;html=1;aspect=fixed;fillColor=#A8A8A8;" vertex="1" parent="1">
          <mxGeometry x="320.97" y="330" width="20" height="20" as="geometry" />
        </mxCell>
        <mxCell id="T6H1AE3Xun4fIEKx8A7G-16" value="Authorization Code&amp;nbsp;&lt;div&gt;requests to /authorize&lt;/div&gt;" style="text;html=1;align=center;verticalAlign=middle;resizable=0;points=[];autosize=1;strokeColor=none;fillColor=none;" vertex="1" parent="1">
          <mxGeometry x="361.94" y="300" width="140" height="40" as="geometry" />
        </mxCell>
        <mxCell id="T6H1AE3Xun4fIEKx8A7G-17" value="User Clicks Login" style="text;html=1;align=center;verticalAlign=middle;resizable=0;points=[];autosize=1;strokeColor=none;fillColor=none;" vertex="1" parent="1">
          <mxGeometry x="170" y="285" width="120" height="30" as="geometry" />
        </mxCell>
        <mxCell id="T6H1AE3Xun4fIEKx8A7G-20" value="" style="endArrow=none;html=1;rounded=0;" edge="1" parent="1" source="T6H1AE3Xun4fIEKx8A7G-26" target="T6H1AE3Xun4fIEKx8A7G-18">
          <mxGeometry width="50" height="50" relative="1" as="geometry">
            <mxPoint x="520" y="560" as="sourcePoint" />
            <mxPoint x="520" y="276" as="targetPoint" />
          </mxGeometry>
        </mxCell>
        <mxCell id="T6H1AE3Xun4fIEKx8A7G-21" style="edgeStyle=orthogonalEdgeStyle;rounded=0;orthogonalLoop=1;jettySize=auto;html=1;" edge="1" parent="1" source="T6H1AE3Xun4fIEKx8A7G-18">
          <mxGeometry relative="1" as="geometry">
            <mxPoint x="140" y="370" as="targetPoint" />
          </mxGeometry>
        </mxCell>
        <mxCell id="T6H1AE3Xun4fIEKx8A7G-18" value="3" style="ellipse;whiteSpace=wrap;html=1;aspect=fixed;fillColor=#A8A8A8;" vertex="1" parent="1">
          <mxGeometry x="509.53" y="360" width="20" height="20" as="geometry" />
        </mxCell>
        <mxCell id="T6H1AE3Xun4fIEKx8A7G-22" value="Redirect to login prompt" style="text;html=1;align=center;verticalAlign=middle;resizable=0;points=[];autosize=1;strokeColor=none;fillColor=none;" vertex="1" parent="1">
          <mxGeometry x="160" y="345" width="150" height="30" as="geometry" />
        </mxCell>
        <mxCell id="T6H1AE3Xun4fIEKx8A7G-24" style="edgeStyle=orthogonalEdgeStyle;rounded=0;orthogonalLoop=1;jettySize=auto;html=1;" edge="1" parent="1" source="T6H1AE3Xun4fIEKx8A7G-23">
          <mxGeometry relative="1" as="geometry">
            <mxPoint x="520" y="420" as="targetPoint" />
          </mxGeometry>
        </mxCell>
        <mxCell id="T6H1AE3Xun4fIEKx8A7G-23" value="4" style="ellipse;whiteSpace=wrap;html=1;aspect=fixed;fillColor=#A8A8A8;" vertex="1" parent="1">
          <mxGeometry x="130.00000000000003" y="410" width="20" height="20" as="geometry" />
        </mxCell>
        <mxCell id="T6H1AE3Xun4fIEKx8A7G-25" value="Authenticate and consent" style="text;html=1;align=center;verticalAlign=middle;resizable=0;points=[];autosize=1;strokeColor=none;fillColor=none;" vertex="1" parent="1">
          <mxGeometry x="338" y="396" width="160" height="30" as="geometry" />
        </mxCell>
        <mxCell id="T6H1AE3Xun4fIEKx8A7G-27" value="" style="endArrow=none;html=1;rounded=0;" edge="1" parent="1" source="T6H1AE3Xun4fIEKx8A7G-36" target="T6H1AE3Xun4fIEKx8A7G-26">
          <mxGeometry width="50" height="50" relative="1" as="geometry">
            <mxPoint x="520" y="560" as="sourcePoint" />
            <mxPoint x="520" y="380" as="targetPoint" />
          </mxGeometry>
        </mxCell>
        <mxCell id="T6H1AE3Xun4fIEKx8A7G-28" style="edgeStyle=orthogonalEdgeStyle;rounded=0;orthogonalLoop=1;jettySize=auto;html=1;" edge="1" parent="1" source="T6H1AE3Xun4fIEKx8A7G-26">
          <mxGeometry relative="1" as="geometry">
            <mxPoint x="330" y="450" as="targetPoint" />
          </mxGeometry>
        </mxCell>
        <mxCell id="T6H1AE3Xun4fIEKx8A7G-26" value="5" style="ellipse;whiteSpace=wrap;html=1;aspect=fixed;fillColor=#A8A8A8;" vertex="1" parent="1">
          <mxGeometry x="509.53000000000003" y="440" width="20" height="20" as="geometry" />
        </mxCell>
        <mxCell id="T6H1AE3Xun4fIEKx8A7G-29" value="Authorization Code" style="text;html=1;align=center;verticalAlign=middle;resizable=0;points=[];autosize=1;strokeColor=none;fillColor=none;" vertex="1" parent="1">
          <mxGeometry x="353" y="426" width="130" height="30" as="geometry" />
        </mxCell>
        <mxCell id="T6H1AE3Xun4fIEKx8A7G-31" value="" style="endArrow=none;html=1;rounded=0;entryX=0.5;entryY=1;entryDx=0;entryDy=0;" edge="1" parent="1" target="T6H1AE3Xun4fIEKx8A7G-30">
          <mxGeometry width="50" height="50" relative="1" as="geometry">
            <mxPoint x="330" y="600" as="sourcePoint" />
            <mxPoint x="331" y="350" as="targetPoint" />
          </mxGeometry>
        </mxCell>
        <mxCell id="T6H1AE3Xun4fIEKx8A7G-32" style="edgeStyle=orthogonalEdgeStyle;rounded=0;orthogonalLoop=1;jettySize=auto;html=1;" edge="1" parent="1" source="T6H1AE3Xun4fIEKx8A7G-30">
          <mxGeometry relative="1" as="geometry">
            <mxPoint x="520" y="480" as="targetPoint" />
          </mxGeometry>
        </mxCell>
        <mxCell id="T6H1AE3Xun4fIEKx8A7G-30" value="6" style="ellipse;whiteSpace=wrap;html=1;aspect=fixed;fillColor=#A8A8A8;" vertex="1" parent="1">
          <mxGeometry x="320.97" y="470" width="20" height="20" as="geometry" />
        </mxCell>
        <mxCell id="T6H1AE3Xun4fIEKx8A7G-33" value="&lt;font style=&quot;font-size: 10px;&quot;&gt;Request for ID token/Access token&lt;/font&gt;" style="text;html=1;align=center;verticalAlign=middle;resizable=0;points=[];autosize=1;strokeColor=none;fillColor=none;" vertex="1" parent="1">
          <mxGeometry x="334.53" y="456" width="180" height="30" as="geometry" />
        </mxCell>
        <mxCell id="T6H1AE3Xun4fIEKx8A7G-34" value="Course Management Service" style="text;html=1;align=center;verticalAlign=middle;resizable=0;points=[];autosize=1;strokeColor=none;fillColor=none;" vertex="1" parent="1">
          <mxGeometry x="610" y="178" width="180" height="30" as="geometry" />
        </mxCell>
        <mxCell id="T6H1AE3Xun4fIEKx8A7G-35" value="Authorization Service" style="text;html=1;align=center;verticalAlign=middle;resizable=0;points=[];autosize=1;strokeColor=none;fillColor=none;" vertex="1" parent="1">
          <mxGeometry x="449.53" y="178" width="140" height="30" as="geometry" />
        </mxCell>
        <mxCell id="T6H1AE3Xun4fIEKx8A7G-37" value="" style="endArrow=none;html=1;rounded=0;" edge="1" parent="1" target="T6H1AE3Xun4fIEKx8A7G-36">
          <mxGeometry width="50" height="50" relative="1" as="geometry">
            <mxPoint x="520" y="600" as="sourcePoint" />
            <mxPoint x="520" y="460" as="targetPoint" />
          </mxGeometry>
        </mxCell>
        <mxCell id="T6H1AE3Xun4fIEKx8A7G-38" style="edgeStyle=orthogonalEdgeStyle;rounded=0;orthogonalLoop=1;jettySize=auto;html=1;" edge="1" parent="1" source="T6H1AE3Xun4fIEKx8A7G-36">
          <mxGeometry relative="1" as="geometry">
            <mxPoint x="330" y="510" as="targetPoint" />
          </mxGeometry>
        </mxCell>
        <mxCell id="T6H1AE3Xun4fIEKx8A7G-36" value="7" style="ellipse;whiteSpace=wrap;html=1;aspect=fixed;fillColor=#A8A8A8;" vertex="1" parent="1">
          <mxGeometry x="509.53000000000003" y="500" width="20" height="20" as="geometry" />
        </mxCell>
        <mxCell id="T6H1AE3Xun4fIEKx8A7G-39" value="ID token and Access Token" style="text;html=1;align=center;verticalAlign=middle;resizable=0;points=[];autosize=1;strokeColor=none;fillColor=none;" vertex="1" parent="1">
          <mxGeometry x="339.53" y="486" width="170" height="30" as="geometry" />
        </mxCell>
        <mxCell id="T6H1AE3Xun4fIEKx8A7G-41" style="edgeStyle=orthogonalEdgeStyle;rounded=0;orthogonalLoop=1;jettySize=auto;html=1;endArrow=none;startFill=0;" edge="1" parent="1" source="T6H1AE3Xun4fIEKx8A7G-40">
          <mxGeometry relative="1" as="geometry">
            <mxPoint x="701" y="600" as="targetPoint" />
          </mxGeometry>
        </mxCell>
        <mxCell id="T6H1AE3Xun4fIEKx8A7G-40" value="" style="shape=image;verticalLabelPosition=bottom;labelBackgroundColor=#ffffff;verticalAlign=top;aspect=fixed;imageAspect=0;image=data:image/svg+xml,PHN2ZyB4bWxuczpjYz0iaHR0cDovL2NyZWF0aXZlY29tbW9ucy5vcmcvbnMjIiB4bWxuczpkYz0iaHR0cDovL3B1cmwub3JnL2RjL2VsZW1lbnRzLzEuMS8iIHhtbG5zOmlua3NjYXBlPSJodHRwOi8vd3d3Lmlua3NjYXBlLm9yZy9uYW1lc3BhY2VzL2lua3NjYXBlIiB4bWxuczpyZGY9Imh0dHA6Ly93d3cudzMub3JnLzE5OTkvMDIvMjItcmRmLXN5bnRheC1ucyMiIHhtbG5zOnNvZGlwb2RpPSJodHRwOi8vc29kaXBvZGkuc291cmNlZm9yZ2UubmV0L0RURC9zb2RpcG9kaS0wLmR0ZCIgeG1sbnM6c3ZnPSJodHRwOi8vd3d3LnczLm9yZy8yMDAwL3N2ZyIgeG1sbnM9Imh0dHA6Ly93d3cudzMub3JnLzIwMDAvc3ZnIiB4bWxuczp4bGluaz0iaHR0cDovL3d3dy53My5vcmcvMTk5OS94bGluayIgdmVyc2lvbj0iMS4xIiBpZD0ic3ZnMTMwNTU1IiBpbmtzY2FwZTp2ZXJzaW9uPSIwLjkyLjMgKDI0MDU1NDYsIDIwMTgtMDMtMTEpIiBzb2RpcG9kaTpkb2NuYW1lPSJjb3Vyc2Uuc3ZnIiB4PSIwcHgiIHk9IjBweCIgdmlld0JveD0iMCAwIDQ4IDMwLjciIHN0eWxlPSJlbmFibGUtYmFja2dyb3VuZDpuZXcgMCAwIDQ4IDMwLjc7IiB4bWw6c3BhY2U9InByZXNlcnZlIj4mI3hhOzxzb2RpcG9kaTpuYW1lZHZpZXcgYm9yZGVyY29sb3I9IiM2NjY2NjYiIGJvcmRlcm9wYWNpdHk9IjEiIGZpdC1tYXJnaW4tYm90dG9tPSIwIiBmaXQtbWFyZ2luLWxlZnQ9IjAiIGZpdC1tYXJnaW4tcmlnaHQ9IjAiIGZpdC1tYXJnaW4tdG9wPSIwIiBncmlkdG9sZXJhbmNlPSIxMCIgZ3VpZGV0b2xlcmFuY2U9IjEwIiBpZD0ibmFtZWR2aWV3MTMwNTU3IiBpbmtzY2FwZTpjdXJyZW50LWxheWVyPSJzdmcxMzA1NTUiIGlua3NjYXBlOmN4PSIzMiIgaW5rc2NhcGU6Y3k9IjE5Ljk5OTk5NyIgaW5rc2NhcGU6cGFnZW9wYWNpdHk9IjAiIGlua3NjYXBlOnBhZ2VzaGFkb3c9IjIiIGlua3NjYXBlOndpbmRvdy1oZWlnaHQ9IjEwMTciIGlua3NjYXBlOndpbmRvdy1tYXhpbWl6ZWQ9IjEiIGlua3NjYXBlOndpbmRvdy13aWR0aD0iMTkyMCIgaW5rc2NhcGU6d2luZG93LXg9Ii04IiBpbmtzY2FwZTp3aW5kb3cteT0iLTgiIGlua3NjYXBlOnpvb209IjEzLjEzNjM2NCIgb2JqZWN0dG9sZXJhbmNlPSIxMCIgcGFnZWNvbG9yPSIjZmZmZmZmIiBzaG93Z3JpZD0iZmFsc2UiPiYjeGE7CTwvc29kaXBvZGk6bmFtZWR2aWV3PiYjeGE7PGcgaWQ9InNoYXBlMTg2Ny0yIiB0cmFuc2Zvcm09InRyYW5zbGF0ZSgzLjc1LC0yMy4yNDc1KSI+JiN4YTsJPHRpdGxlIGlkPSJ0aXRsZTEzMDUyMiI+cmVjdDY4MzE8L3RpdGxlPiYjeGE7CTxwYXRoIGlkPSJwYXRoMTMwNTI0IiBpbmtzY2FwZTpjb25uZWN0b3ItY3VydmF0dXJlPSIwIiBzdHlsZT0iZmlsbDojNEQ0RTRFOyIgZD0iTTAsNDhjMCwwLjgzLDAuNjcsMS41LDEuNSwxLjUgICBDMi4zMyw0OS41LDMsNDguODMsMyw0OFYzMi4yNWMwLTAuODMtMC42Ny0xLjUtMS41LTEuNWMtMC44MywwLTEuNSwwLjY3LTEuNSwxLjVWNDh6Ii8+JiN4YTs8L2c+JiN4YTs8ZyBpZD0ic2hhcGUxODY4LTQiIHRyYW5zZm9ybT0idHJhbnNsYXRlKDAsLTE4LjgpIj4mI3hhOwk8dGl0bGUgaWQ9InRpdGxlMTMwNTI3Ij5wYXRoNjgzMzwvdGl0bGU+JiN4YTsJPHBhdGggaWQ9InBhdGgxMzA1MjkiIGlua3NjYXBlOmNvbm5lY3Rvci1jdXJ2YXR1cmU9IjAiIHN0eWxlPSJmaWxsOiMwMDUwQzU7IiBkPSJNNDgsMjYuODFMMjQsMTguOEwwLDI2LjgxbDksM3YxMiAgIGMwLDQuMTcsNi44Nyw3LjY5LDE1LDcuNjlzMTUtMy41MiwxNS03LjY5di0xMkw0OCwyNi44MXoiLz4mI3hhOzwvZz4mI3hhOzxnIGlkPSJzaGFwZTE4NjktNiIgdHJhbnNmb3JtPSJ0cmFuc2xhdGUoOSwtMTguOCkiPiYjeGE7CTx0aXRsZSBpZD0idGl0bGUxMzA1MzIiPnBhdGg2ODM1PC90aXRsZT4mI3hhOwk8cGF0aCBpZD0icGF0aDEzMDUzNCIgaW5rc2NhcGU6Y29ubmVjdG9yLWN1cnZhdHVyZT0iMCIgc3R5bGU9ImZpbGw6IzAwNzhENzsiIGQ9Ik0xNSw0OS41YzguMTMsMCwxNS0zLjUyLDE1LTcuNjlWMzEuNDYgICBMMTUuNzUsMzYuOEwwLDMxLjA3VjQxLjhDMCw0NS45OCw2Ljg3LDQ5LjUsMTUsNDkuNXoiLz4mI3hhOzwvZz4mI3hhOzxnIGlkPSJzaGFwZTE4NzAtOCIgdHJhbnNmb3JtPSJ0cmFuc2xhdGUoOSwtMjguNDk3NSkiPiYjeGE7CTx0aXRsZSBpZD0idGl0bGUxMzA1MzciPnBvbHlnb242ODM3PC90aXRsZT4mI3hhOwk8cGF0aCBpZD0icGF0aDEzMDUzOSIgaW5rc2NhcGU6Y29ubmVjdG9yLWN1cnZhdHVyZT0iMCIgc3R5bGU9ImZpbGw6IzU1QTVFNDsiIGQ9Ik0zMCwzOS41bC0xNSw0LjE3TDAsMzkuNjZ2NC41OWwxNSw1LjI1bDE1LTUuMjUgICBWMzkuNXoiLz4mI3hhOzwvZz4mI3hhOzxnIGlkPSJzaGFwZTE4NzEtMTAiIHRyYW5zZm9ybT0idHJhbnNsYXRlKDMsLTIxLjA1KSI+JiN4YTsJPHRpdGxlIGlkPSJ0aXRsZTEzMDU0MiI+cGF0aDY4Mzk8L3RpdGxlPiYjeGE7CTxwYXRoIGlkPSJwYXRoMTMwNTQ0IiBpbmtzY2FwZTpjb25uZWN0b3ItY3VydmF0dXJlPSIwIiBzdHlsZT0iZmlsbDojNEQ0RTRFOyIgZD0iTTAsNDkuNVY0NWMwLTEuNjUsMC44MS0zLDEuOC0zaDAuOSAgIGMwLjk5LDAsMS44LDEuMzUsMS44LDN2NC41SDB6Ii8+JiN4YTs8L2c+JiN4YTs8ZyBpZD0ic2hhcGUxODcyLTEyIiB0cmFuc2Zvcm09InRyYW5zbGF0ZSgwLC05LjgpIj4mI3hhOwk8dGl0bGUgaWQ9InRpdGxlMTMwNTQ3Ij5yZWN0Njg0MTwvdGl0bGU+JiN4YTsJPHJlY3QgaWQ9InJlY3QxMzA1NDkiIHk9IjEuNSIgc3R5bGU9ImZpbGw6bm9uZTsiIHdpZHRoPSI0OCIgaGVpZ2h0PSI0OCIvPiYjeGE7PC9nPiYjeGE7PC9zdmc+;" vertex="1" parent="1">
          <mxGeometry x="670" y="226" width="61.94" height="40" as="geometry" />
        </mxCell>
        <mxCell id="T6H1AE3Xun4fIEKx8A7G-43" style="edgeStyle=orthogonalEdgeStyle;rounded=0;orthogonalLoop=1;jettySize=auto;html=1;" edge="1" parent="1" source="T6H1AE3Xun4fIEKx8A7G-42">
          <mxGeometry relative="1" as="geometry">
            <mxPoint x="700" y="540" as="targetPoint" />
          </mxGeometry>
        </mxCell>
        <mxCell id="T6H1AE3Xun4fIEKx8A7G-42" value="8" style="ellipse;whiteSpace=wrap;html=1;aspect=fixed;fillColor=#A8A8A8;" vertex="1" parent="1">
          <mxGeometry x="320.96999999999997" y="530" width="20" height="20" as="geometry" />
        </mxCell>
        <mxCell id="T6H1AE3Xun4fIEKx8A7G-44" value="Request user data&amp;nbsp;&lt;div&gt;with access token&lt;/div&gt;" style="text;html=1;align=center;verticalAlign=middle;resizable=0;points=[];autosize=1;strokeColor=none;fillColor=none;" vertex="1" parent="1">
          <mxGeometry x="550" y="503" width="120" height="40" as="geometry" />
        </mxCell>
        <mxCell id="T6H1AE3Xun4fIEKx8A7G-46" style="edgeStyle=orthogonalEdgeStyle;rounded=0;orthogonalLoop=1;jettySize=auto;html=1;" edge="1" parent="1" source="T6H1AE3Xun4fIEKx8A7G-45">
          <mxGeometry relative="1" as="geometry">
            <mxPoint x="330" y="580" as="targetPoint" />
          </mxGeometry>
        </mxCell>
        <mxCell id="T6H1AE3Xun4fIEKx8A7G-45" value="9" style="ellipse;whiteSpace=wrap;html=1;aspect=fixed;fillColor=#A8A8A8;" vertex="1" parent="1">
          <mxGeometry x="690" y="570" width="20" height="20" as="geometry" />
        </mxCell>
        <mxCell id="T6H1AE3Xun4fIEKx8A7G-47" value="Response" style="text;html=1;align=center;verticalAlign=middle;resizable=0;points=[];autosize=1;strokeColor=none;fillColor=none;" vertex="1" parent="1">
          <mxGeometry x="369.53" y="555" width="80" height="30" as="geometry" />
        </mxCell>
        <mxCell id="T6H1AE3Xun4fIEKx8A7G-48" value="" style="shape=image;verticalLabelPosition=bottom;labelBackgroundColor=default;verticalAlign=top;aspect=fixed;imageAspect=0;image=https://www.pngall.com/wp-content/uploads/15/React-Logo.png;" vertex="1" parent="1">
          <mxGeometry x="274.72" y="207.5" width="112.5" height="75" as="geometry" />
        </mxCell>
        <mxCell id="T6H1AE3Xun4fIEKx8A7G-49" value="React App Frontend" style="text;html=1;align=center;verticalAlign=middle;resizable=0;points=[];autosize=1;strokeColor=none;fillColor=none;" vertex="1" parent="1">
          <mxGeometry x="265.97" y="178" width="130" height="30" as="geometry" />
        </mxCell>
      </root>
    </mxGraphModel>
  </diagram>
</mxfile>
